<svg xmlns="http://www.w3.org/2000/svg" viewBox="0 15.5 399.6499938964844 37.45000076293945" data-asc="1.05" width="399.6499938964844" height="37.45000076293945"><defs/><g fill="#7562e0"><g transform="translate(0, 0)"><path d="M18.00 52.50L10.30 38.90L7.00 38.90L7.00 52.50L0 52.50L0 17.60L13.10 17.60Q17.15 17.60 20.00 19.02Q22.85 20.45 24.28 22.88Q25.70 25.30 25.70 28.30Q25.70 31.75 23.70 34.52Q21.70 37.30 17.75 38.35L26.10 52.50L18.00 52.50M7.00 33.65L12.85 33.65Q15.70 33.65 17.10 32.27Q18.50 30.90 18.50 28.45Q18.50 26.05 17.10 24.72Q15.70 23.40 12.85 23.40L7.00 23.40L7.00 33.65ZM58.20 24.80L58.20 52.50L51.15 52.50L51.15 49Q49.80 50.80 47.63 51.83Q45.45 52.85 42.90 52.85Q39.65 52.85 37.15 51.48Q34.65 50.10 33.23 47.42Q31.80 44.75 31.80 41.05L31.80 24.80L38.80 24.80L38.80 40.05Q38.80 43.35 40.45 45.13Q42.10 46.90 44.95 46.90Q47.85 46.90 49.50 45.13Q51.15 43.35 51.15 40.05L51.15 24.80L58.20 24.80ZM75.70 52.95Q72.30 52.95 69.60 51.73Q66.90 50.50 65.33 48.40Q63.75 46.30 63.60 43.75L70.65 43.75Q70.85 45.35 72.23 46.40Q73.60 47.45 75.65 47.45Q77.65 47.45 78.78 46.65Q79.90 45.85 79.90 44.60Q79.90 43.25 78.53 42.58Q77.15 41.90 74.15 41.10Q71.05 40.35 69.08 39.55Q67.10 38.75 65.68 37.10Q64.25 35.45 64.25 32.65Q64.25 30.35 65.58 28.45Q66.90 26.55 69.38 25.45Q71.85 24.35 75.20 24.35Q80.15 24.35 83.10 26.82Q86.05 29.30 86.35 33.50L79.65 33.50Q79.50 31.85 78.28 30.88Q77.05 29.90 75 29.90Q73.10 29.90 72.08 30.60Q71.05 31.30 71.05 32.55Q71.05 33.95 72.45 34.67Q73.85 35.40 76.80 36.15Q79.80 36.90 81.75 37.70Q83.70 38.50 85.13 40.17Q86.55 41.85 86.60 44.60Q86.60 47 85.28 48.90Q83.95 50.80 81.48 51.88Q79 52.95 75.70 52.95ZM99.35 15.50L99.35 52.50L92.35 52.50L92.35 15.50L99.35 15.50ZM104.45 38.55Q104.45 34.35 106.13 31.10Q107.80 27.85 110.68 26.10Q113.55 24.35 117.10 24.35Q120.20 24.35 122.53 25.60Q124.85 26.85 126.25 28.75L126.25 24.80L133.30 24.80L133.30 52.50L126.25 52.50L126.25 48.45Q124.90 50.40 122.53 51.67Q120.15 52.95 117.05 52.95Q113.55 52.95 110.68 51.15Q107.80 49.35 106.13 46.08Q104.45 42.80 104.45 38.55M126.25 38.65Q126.25 36.10 125.25 34.27Q124.25 32.45 122.55 31.47Q120.85 30.50 118.90 30.50Q116.95 30.50 115.30 31.45Q113.65 32.40 112.63 34.22Q111.60 36.05 111.60 38.55Q111.60 41.05 112.63 42.92Q113.65 44.80 115.33 45.80Q117.00 46.80 118.90 46.80Q120.85 46.80 122.55 45.83Q124.25 44.85 125.25 43.02Q126.25 41.20 126.25 38.65ZM155.50 24.40Q160.45 24.40 163.50 27.52Q166.55 30.65 166.55 36.25L166.55 52.50L159.55 52.50L159.55 37.20Q159.55 33.90 157.90 32.13Q156.25 30.35 153.40 30.35Q150.50 30.35 148.83 32.13Q147.15 33.90 147.15 37.20L147.15 52.50L140.15 52.50L140.15 24.80L147.15 24.80L147.15 28.25Q148.55 26.45 150.73 25.42Q152.90 24.40 155.50 24.40ZM210.55 28.40Q210.55 31.20 209.23 33.65Q207.90 36.10 205.08 37.60Q202.25 39.10 197.95 39.10L192.10 39.10L192.10 52.50L185.10 52.50L185.10 17.60L197.95 17.60Q202.00 17.60 204.85 19Q207.70 20.40 209.13 22.85Q210.55 25.30 210.55 28.40M197.65 33.45Q200.55 33.45 201.95 32.13Q203.35 30.80 203.35 28.40Q203.35 23.30 197.65 23.30L192.10 23.30L192.10 33.45L197.65 33.45ZM213.70 38.55Q213.70 34.35 215.38 31.10Q217.05 27.85 219.93 26.10Q222.80 24.35 226.35 24.35Q229.45 24.35 231.78 25.60Q234.10 26.85 235.50 28.75L235.50 24.80L242.55 24.80L242.55 52.50L235.50 52.50L235.50 48.45Q234.15 50.40 231.78 51.67Q229.40 52.95 226.30 52.95Q222.80 52.95 219.93 51.15Q217.05 49.35 215.38 46.08Q213.70 42.80 213.70 38.55M235.50 38.65Q235.50 36.10 234.50 34.27Q233.50 32.45 231.80 31.47Q230.10 30.50 228.15 30.50Q226.20 30.50 224.55 31.45Q222.90 32.40 221.88 34.22Q220.85 36.05 220.85 38.55Q220.85 41.05 221.88 42.92Q222.90 44.80 224.58 45.80Q226.25 46.80 228.15 46.80Q230.10 46.80 231.80 45.83Q233.50 44.85 234.50 43.02Q235.50 41.20 235.50 38.65ZM247.60 38.65Q247.60 34.35 249.35 31.13Q251.10 27.90 254.20 26.13Q257.30 24.35 261.30 24.35Q266.45 24.35 269.83 26.92Q273.20 29.50 274.35 34.15L266.80 34.15Q266.20 32.35 264.78 31.32Q263.35 30.30 261.25 30.30Q258.25 30.30 256.50 32.47Q254.75 34.65 254.75 38.65Q254.75 42.60 256.50 44.77Q258.25 46.95 261.25 46.95Q265.50 46.95 266.80 43.15L274.35 43.15Q273.20 47.65 269.80 50.30Q266.40 52.95 261.30 52.95Q257.30 52.95 254.20 51.17Q251.10 49.40 249.35 46.17Q247.60 42.95 247.60 38.65ZM295.10 24.40Q298.25 24.40 300.70 25.77Q303.15 27.15 304.53 29.82Q305.90 32.50 305.90 36.25L305.90 52.50L298.90 52.50L298.90 37.20Q298.90 33.90 297.25 32.13Q295.60 30.35 292.75 30.35Q289.85 30.35 288.18 32.13Q286.50 33.90 286.50 37.20L286.50 52.50L279.50 52.50L279.50 15.50L286.50 15.50L286.50 28.25Q287.85 26.45 290.10 25.42Q292.35 24.40 295.10 24.40ZM328.95 52.50L319.55 40.70L319.55 52.50L312.55 52.50L312.55 15.50L319.55 15.50L319.55 36.55L328.85 24.80L337.95 24.80L325.75 38.70L338.05 52.50L328.95 52.50ZM354.05 52.95Q350.05 52.95 346.85 51.17Q343.65 49.40 341.83 46.15Q340.00 42.90 340.00 38.65Q340.00 34.40 341.88 31.15Q343.75 27.90 347.00 26.13Q350.25 24.35 354.25 24.35Q358.25 24.35 361.50 26.13Q364.75 27.90 366.63 31.15Q368.50 34.40 368.50 38.65Q368.50 42.90 366.58 46.15Q364.65 49.40 361.38 51.17Q358.10 52.95 354.05 52.95M354.05 46.85Q355.95 46.85 357.63 45.92Q359.30 45 360.30 43.15Q361.30 41.30 361.30 38.65Q361.30 34.70 359.23 32.58Q357.15 30.45 354.15 30.45Q351.15 30.45 349.13 32.58Q347.10 34.70 347.10 38.65Q347.10 42.60 349.08 44.73Q351.05 46.85 354.05 46.85ZM385.20 46.05L392.20 24.80L399.65 24.80L389.40 52.50L380.90 52.50L370.70 24.80L378.20 24.80L385.20 46.05Z"/></g></g></svg>